<svg width="198" height="90" viewBox="0 0 198 90" fill="none" xmlns="http://www.w3.org/2000/svg">
<path d="M3.17195 50.28V33.54C3.17195 26.9 3.13195 22.12 3.05195 19.2C3.01195 16.28 2.75195 13.96 2.27195 12.24C1.87195 11.08 1.45195 9.92 1.01195 8.75999C1.01195 8.75999 4.55195 8.75999 11.632 8.75999H17.092C20.652 8.75999 23.232 9.14 24.832 9.9C27.272 11.1 29.072 13.54 30.232 17.22C30.952 19.54 31.312 22.1 31.312 24.9C31.312 30.06 30.252 34.06 28.132 36.9C26.812 38.66 25.292 39.76 23.572 40.2C25.212 40.6 26.372 40.96 27.052 41.28C28.452 41.92 29.612 42.84 30.532 44.04C32.772 46.92 33.892 51.1 33.892 56.58C33.892 64.22 31.932 69.54 28.012 72.54C25.572 74.46 22.492 75.38 18.772 75.3C14.292 75.22 8.69195 75.12 1.97195 75C1.41195 75 1.21195 75 1.37195 75C1.53195 75 1.59195 75 1.55195 75C1.51195 75 1.11195 75 0.351952 75C1.95195 73.56 2.83195 71.6 2.99195 69.12C3.11195 65.96 3.17195 59.68 3.17195 50.28ZM13.012 13.5V35.4C14.012 35.88 15.132 36.12 16.372 36.12C17.772 36.12 19.032 35.28 20.152 33.6C21.472 31.68 22.132 29.2 22.132 26.16C22.132 22.52 21.712 19.52 20.872 17.16C19.872 14.32 18.392 12.96 16.432 13.08C15.592 13.16 14.452 13.3 13.012 13.5ZM13.072 42.78V66.3C13.072 68.14 13.392 69.42 14.032 70.14C14.672 70.82 15.852 71.12 17.572 71.04C22.132 70.88 24.412 65.92 24.412 56.16C24.412 53.08 23.692 50.06 22.252 47.1C20.572 43.7 18.592 42 16.312 42C16.232 42 15.152 42.26 13.072 42.78ZM45.4448 54.12L45.3248 66.3C45.3248 68.82 45.3448 70.24 45.3848 70.56C45.5048 71.24 45.9048 71.58 46.5848 71.58C46.8248 71.58 47.3448 71.52 48.1448 71.4C50.7448 71.04 52.4248 70.7 53.1848 70.38C54.1848 69.94 55.5448 68.84 57.2648 67.08C57.0248 68.92 56.6048 71.6 56.0048 75.12C56.0048 75.12 52.9848 75.12 46.9448 75.12C46.9848 75.12 45.0848 75.08 41.2448 75C38.9248 74.96 37.0048 75 35.4848 75.12C35.8048 74.32 36.0048 73.76 36.0848 73.44C36.2848 72.84 36.4048 72.06 36.4448 71.1C36.5648 68.94 36.6248 64.86 36.6248 58.86V48.18C36.6248 45.18 36.6048 42.22 36.5648 39.3C36.4848 37.3 36.3648 35.9 36.2048 35.1C36.1248 34.66 35.8448 33.94 35.3648 32.94C36.0848 32.9 37.2248 32.9 38.7848 32.94C38.7848 32.94 40.5248 32.94 44.0048 32.94C52.0048 32.94 56.0048 32.94 56.0048 32.94C56.0448 32.98 55.9448 34 55.7048 36C55.4248 38.16 55.2848 39.24 55.2848 39.24C54.7648 38.44 54.3448 37.98 54.0248 37.86C53.7048 37.7 52.9648 37.58 51.8048 37.5C49.9248 37.38 47.7848 37.36 45.3848 37.44V49.08H48.2648C50.1048 49.08 51.2648 49.04 51.7448 48.96C52.5048 48.88 53.2448 48.62 53.9648 48.18V51.18C53.9648 53.78 53.9648 55.08 53.9648 55.08C53.1648 54.44 51.6848 54.12 49.5248 54.12H45.4448ZM79.0588 49.5L80.6788 58.02C82.6788 68.58 84.5388 74.28 86.2588 75.12C86.2588 75.12 84.5588 75.12 81.1588 75.12C81.2788 75.12 80.3988 75.06 78.5188 74.94C77.1188 74.86 75.7988 74.88 74.5588 75L75.3388 73.74C75.2988 72.62 75.0588 70.08 74.6188 66.12H67.3588C66.5988 69.96 66.2188 72.24 66.2188 72.96C66.2188 73.92 66.4388 74.6 66.8788 75C66.4788 74.96 65.6988 74.96 64.5388 75C63.0188 75.08 61.7788 75.12 60.8188 75.12C58.2988 75.12 57.0388 75.12 57.0388 75.12C58.1188 74.52 58.9788 73.08 59.6188 70.8C60.0988 69.24 61.1188 64.68 62.6788 57.12L64.3588 49.08C64.9988 46.24 65.6388 43.4 66.2788 40.56C66.8388 38.12 67.1188 36.4 67.1188 35.4C67.1188 34 66.5988 33.12 65.5588 32.76C66.2788 32.76 67.2988 32.78 68.6188 32.82C68.6188 32.82 69.7988 32.82 72.1588 32.82C73.0788 32.82 74.1788 32.8 75.4588 32.76C76.7388 32.76 77.8788 32.76 78.8788 32.76C77.3188 33.32 76.5388 34.48 76.5388 36.24C76.5388 37.24 76.7988 38.94 77.3188 41.34C78.3588 46.26 78.9388 48.98 79.0588 49.5ZM68.4388 58.2H73.4188L71.0188 42.72L68.4388 58.2Z" fill="white"/>
<path d="M103.431 48.24V55.02C103.431 71.74 103.471 81.18 103.551 83.34C103.631 85.18 103.951 86.6 104.511 87.6C104.871 88.2 105.511 88.84 106.431 89.52C106.431 89.52 103.951 89.52 98.9911 89.52C93.7911 89.52 91.1911 89.52 91.1911 89.52C91.8311 88.8 92.4711 88.1 93.1111 87.42C93.8711 86.34 94.2711 84.96 94.3111 83.28C94.4311 80.84 94.4911 71.46 94.4911 55.14V48.06C94.4911 42.82 94.4311 39.58 94.3111 38.34L91.0711 38.22C89.7111 38.18 88.4311 38.62 87.2311 39.54C86.3511 40.22 85.7311 40.98 85.3711 41.82C85.3711 41.26 85.5511 40.48 85.9111 39.48C86.3511 38.24 86.6511 37.24 86.8111 36.48C86.9711 35.96 87.2711 34.74 87.7111 32.82C88.6311 32.78 90.1911 32.78 92.3911 32.82C94.9511 32.9 96.8711 32.94 98.1511 32.94C103.471 32.94 107.291 32.8 109.611 32.52C109.651 33.32 110.031 34.9 110.751 37.26C111.191 38.42 111.691 39.94 112.251 41.82C111.291 40.66 110.571 39.9 110.091 39.54C108.811 38.58 107.391 38.14 105.831 38.22L103.371 38.34C103.371 39.1 103.371 40.44 103.371 42.36C103.411 45.04 103.431 47 103.431 48.24ZM122.028 47.4L121.908 55.5V65.16C121.908 67.48 121.968 68.94 122.088 69.54C122.328 70.3 122.848 70.68 123.648 70.68C124.088 70.68 124.908 70.56 126.108 70.32C127.788 70 129.248 69.32 130.488 68.28C131.208 67.56 131.908 66.84 132.588 66.12C132.148 68.32 131.648 71.32 131.088 75.12C129.648 74.96 127.608 74.92 124.968 75C120.688 75.08 118.748 75.12 119.148 75.12C114.948 75.12 112.848 75.12 112.848 75.12C113.328 74.12 113.628 73.12 113.748 72.12C114.028 70.4 114.168 63.68 114.168 51.96V40.56C114.168 37.16 113.788 34.58 113.028 32.82C113.028 32.82 114.788 32.82 118.308 32.82C121.588 32.82 123.228 32.82 123.228 32.82C123.028 33.18 122.828 33.56 122.628 33.96C122.428 34.36 122.308 34.9 122.268 35.58C122.228 35.94 122.148 39.88 122.028 47.4ZM143.104 54.12L142.984 66.3C142.984 68.82 143.004 70.24 143.044 70.56C143.164 71.24 143.564 71.58 144.244 71.58C144.484 71.58 145.004 71.52 145.804 71.4C148.404 71.04 150.084 70.7 150.844 70.38C151.844 69.94 153.204 68.84 154.924 67.08C154.684 68.92 154.264 71.6 153.664 75.12C153.664 75.12 150.644 75.12 144.604 75.12C144.644 75.12 142.744 75.08 138.904 75C136.584 74.96 134.664 75 133.144 75.12C133.464 74.32 133.664 73.76 133.744 73.44C133.944 72.84 134.064 72.06 134.104 71.1C134.224 68.94 134.284 64.86 134.284 58.86V48.18C134.284 45.18 134.264 42.22 134.224 39.3C134.144 37.3 134.024 35.9 133.864 35.1C133.784 34.66 133.504 33.94 133.024 32.94C133.744 32.9 134.884 32.9 136.444 32.94C136.444 32.94 138.184 32.94 141.664 32.94C149.664 32.94 153.664 32.94 153.664 32.94C153.704 32.98 153.604 34 153.364 36C153.084 38.16 152.944 39.24 152.944 39.24C152.424 38.44 152.004 37.98 151.684 37.86C151.364 37.7 150.624 37.58 149.464 37.5C147.584 37.38 145.444 37.36 143.044 37.44V49.08H145.924C147.764 49.08 148.924 49.04 149.404 48.96C150.164 48.88 150.904 48.62 151.624 48.18V51.18C151.624 53.78 151.624 55.08 151.624 55.08C150.824 54.44 149.344 54.12 147.184 54.12H143.104ZM168.308 31.86C169.908 31.9 171.548 32.32 173.228 33.12C174.908 33.88 175.928 34.26 176.288 34.26C176.808 34.26 177.288 33.98 177.728 33.42C177.408 34.58 176.828 36.76 175.988 39.96C174.588 38.64 173.808 37.92 173.648 37.8C172.488 37 171.048 36.56 169.328 36.48C168.008 36.44 166.868 36.84 165.908 37.68C164.748 38.68 164.168 40.12 164.168 42C164.168 44.24 165.108 46.04 166.988 47.4C168.948 48.56 170.928 49.7 172.928 50.82C177.728 53.7 180.128 57.38 180.128 61.86C180.128 66.06 178.988 69.36 176.708 71.76C174.268 74.32 170.768 75.6 166.208 75.6C163.608 75.6 161.408 74.86 159.608 73.38C157.608 71.74 156.488 69.54 156.248 66.78C156.288 64.98 156.668 63.56 157.388 62.52C157.948 61.68 158.548 61.26 159.188 61.26C159.588 61.26 159.788 61.46 159.788 61.86C159.788 62.14 159.628 62.48 159.308 62.88C159.188 63.36 159.128 63.84 159.128 64.32C159.128 65.96 159.688 67.42 160.808 68.7C161.928 69.94 163.108 70.6 164.348 70.68C166.788 70.84 168.688 70.32 170.048 69.12C171.448 67.88 172.148 66.1 172.148 63.78C172.148 61.22 170.928 58.9 168.488 56.82C168.448 56.78 166.388 55.52 162.308 53.04C159.388 51.28 157.568 48.84 156.848 45.72C156.368 43.52 156.468 41.4 157.148 39.36C158.868 34.2 162.588 31.7 168.308 31.86Z" fill="white"/>
<path d="M84.889 13.296V16.008C84.889 18.856 84.905 20.712 84.937 21.576C84.969 22.312 85.097 22.88 85.321 23.28C85.465 23.52 85.721 23.776 86.089 24.048C86.089 24.048 85.177 24.048 83.353 24.048C81.273 24.048 80.233 24.048 80.233 24.048C80.489 23.76 80.745 23.48 81.001 23.208C81.305 22.776 81.465 22.224 81.481 21.552C81.529 20.576 81.553 18.744 81.553 16.056V13.224C81.553 11.128 81.529 9.832 81.481 9.336L80.185 9.288C79.641 9.272 79.129 9.448 78.649 9.816C78.297 10.088 78.049 10.392 77.905 10.728C77.905 10.488 77.977 10.144 78.121 9.696C78.313 9.056 78.433 8.608 78.481 8.352C78.545 8.224 78.665 7.816 78.841 7.128C79.209 7.112 79.833 7.112 80.713 7.128C81.737 7.16 82.505 7.176 83.017 7.176C84.985 7.176 86.433 7.12 87.361 7.008C87.361 7.152 87.513 7.704 87.817 8.664C87.993 9.208 88.193 9.896 88.417 10.728C88.033 10.264 87.745 9.96 87.553 9.816C87.041 9.432 86.473 9.256 85.849 9.288L84.865 9.336C84.865 9.64 84.865 10.176 84.865 10.944C84.881 12.016 84.889 12.8 84.889 13.296ZM99.4071 12.864V17.424C99.4071 21.376 99.5511 23.592 99.8391 24.072C99.8391 24.072 99.2231 24.072 97.9911 24.072C96.5991 24.072 95.9031 24.072 95.9031 24.072C96.1591 23.32 96.2871 22.368 96.2871 21.216V15.216H92.5431L92.5191 20.736C92.5191 22.336 92.6391 23.448 92.8791 24.072C92.8791 24.072 92.3031 24.072 91.1511 24.072C89.7271 24.072 89.0151 24.072 89.0151 24.072C89.2871 23.336 89.4231 22.456 89.4231 21.432V12.912C89.4231 10.944 89.4071 9.712 89.3751 9.216C89.3431 8.432 89.2231 7.744 89.0151 7.152C89.1111 7.152 89.2871 7.152 89.5431 7.152C89.5431 7.152 89.9111 7.152 90.6471 7.152C92.1031 7.152 92.8311 7.152 92.8311 7.152C92.6391 7.824 92.5431 8.704 92.5431 9.792V13.008H96.2871C96.3031 11.488 96.3031 10.272 96.2871 9.36C96.2711 8.512 96.1671 7.776 95.9751 7.152C96.1671 7.152 96.4711 7.152 96.8871 7.152C96.8871 7.152 97.2311 7.152 97.9191 7.152C99.2311 7.152 99.8871 7.152 99.8871 7.152C99.8071 7.312 99.6951 7.696 99.5511 8.304C99.4551 9.2 99.4071 10.72 99.4071 12.864ZM105.053 15.648L105.005 20.52C105.005 21.528 105.013 22.096 105.029 22.224C105.077 22.496 105.237 22.632 105.509 22.632C105.605 22.632 105.813 22.608 106.133 22.56C107.173 22.416 107.845 22.28 108.149 22.152C108.549 21.976 109.093 21.536 109.781 20.832C109.685 21.568 109.517 22.64 109.277 24.048C109.277 24.048 108.069 24.048 105.653 24.048C105.669 24.048 104.909 24.032 103.373 24C102.445 23.984 101.677 24 101.069 24.048C101.197 23.728 101.277 23.504 101.309 23.376C101.389 23.136 101.437 22.824 101.453 22.44C101.501 21.576 101.525 19.944 101.525 17.544V13.272C101.525 12.072 101.517 10.888 101.501 9.72C101.469 8.92 101.421 8.36 101.357 8.04C101.325 7.864 101.213 7.576 101.021 7.176C101.309 7.16 101.765 7.16 102.389 7.176C102.389 7.176 103.085 7.176 104.477 7.176C107.677 7.176 109.277 7.176 109.277 7.176C109.293 7.192 109.253 7.6 109.157 8.4C109.045 9.264 108.989 9.696 108.989 9.696C108.781 9.376 108.613 9.192 108.485 9.144C108.357 9.08 108.061 9.032 107.597 9C106.845 8.952 105.989 8.944 105.029 8.976V13.632H106.181C106.917 13.632 107.381 13.616 107.573 13.584C107.877 13.552 108.173 13.448 108.461 13.272V14.472C108.461 15.512 108.461 16.032 108.461 16.032C108.141 15.776 107.549 15.648 106.685 15.648H105.053Z" fill="white"/>
</svg>
