<svg width="1529" height="1552" viewBox="0 0 1529 1552" fill="none" xmlns="http://www.w3.org/2000/svg">
<g style="mix-blend-mode:color-dodge">
<path d="M1250.45 994.246C1209.43 1109.43 1138.24 1062.35 929.243 920.082C943.333 972.033 950.016 1034.49 917.866 1058.12C873.007 1091.1 805.837 1011.29 777.859 967.26C691.258 958.548 492.538 952.062 390.477 995.817C262.9 1050.51 262.531 1034.63 123.074 1015.11C-16.3843 995.594 60.7371 825.35 168.062 720.233C249.749 671.938 516.497 639.951 655.67 651.506C794.842 663.059 766.709 655.767 848.405 613.307C930.101 570.847 761.564 512.053 759.854 464.263C758.143 416.474 893.855 387.347 1026.6 420.951L1362.5 505.987C1493.51 547.045 1430.15 586.426 1366.51 617.842C1302.86 649.258 1312.45 659.405 1250.45 994.246Z" fill="url(#paint0_linear_49_280)" fill-opacity="0.34"/>
</g>
<defs>
<linearGradient id="paint0_linear_49_280" x1="310.084" y1="1063.49" x2="819.484" y2="362.433" gradientUnits="userSpaceOnUse">
<stop stop-color="#CDB1D8"/>
<stop offset="0.415" stop-color="#921AAA"/>
<stop offset="0.5" stop-color="#FFF6FF"/>
<stop offset="0.71" stop-color="#CDB1D8"/>
<stop offset="1" stop-color="#FAF7FF"/>
</linearGradient>
</defs>
</svg>
