<svg width="29" height="29" viewBox="0 0 29 29" fill="none" xmlns="http://www.w3.org/2000/svg">
<path d="M2.47705 2.47708H4.89372L8.10788 17.4846C8.22579 18.0342 8.53161 18.5255 8.9727 18.874C9.41379 19.2225 9.96256 19.4063 10.5245 19.3937H22.342C22.8921 19.3929 23.4253 19.2044 23.8537 18.8595C24.2821 18.5145 24.58 18.0338 24.6983 17.4967L26.692 8.51875H6.18663M10.875 25.375C10.875 26.0423 10.334 26.5833 9.66663 26.5833C8.99929 26.5833 8.4583 26.0423 8.4583 25.375C8.4583 24.7077 8.99929 24.1667 9.66663 24.1667C10.334 24.1667 10.875 24.7077 10.875 25.375ZM24.1666 25.375C24.1666 26.0423 23.6256 26.5833 22.9583 26.5833C22.291 26.5833 21.75 26.0423 21.75 25.375C21.75 24.7077 22.291 24.1667 22.9583 24.1667C23.6256 24.1667 24.1666 24.7077 24.1666 25.375Z" stroke="#EFEFEF" stroke-width="2" stroke-linecap="round" stroke-linejoin="round"/>
</svg>
