<svg width="34" height="34" viewBox="0 0 34 34" fill="none" xmlns="http://www.w3.org/2000/svg">
<path d="M17 3.05469C24.7018 3.05469 30.9453 9.2982 30.9453 17C30.9453 24.7018 24.7018 30.9453 17 30.9453C9.2982 30.9453 3.05469 24.7018 3.05469 17C3.05469 9.2982 9.2982 3.05469 17 3.05469Z" stroke="#F3F3F3" stroke-width="2" stroke-linecap="round" stroke-linejoin="round"/>
<path d="M25.6328 14.5922C23.4979 12.95 20.7486 12.021 17.9636 11.7626C15.1918 11.5056 12.2646 11.9021 9.69531 13.041" stroke="#F3F3F3" stroke-width="2" stroke-linecap="round" stroke-linejoin="round"/>
<path d="M23.3352 18.7764C21.6511 17.4496 19.4757 16.6979 17.2723 16.49C15.0218 16.2775 12.6411 16.6215 10.5732 17.601" stroke="#F3F3F3" stroke-width="2" stroke-linecap="round" stroke-linejoin="round"/>
<path d="M21.017 22.9766C19.7859 21.9738 18.1941 21.4067 16.5811 21.25C14.9774 21.094 13.282 21.3363 11.7979 22.033" stroke="#F3F3F3" stroke-width="2" stroke-linecap="round" stroke-linejoin="round"/>
</svg>
